<svg xmlns="http://www.w3.org/2000/svg" viewBox="0 0 1000 405.9" style="enable-background:new 0 0 1000 405.9" xml:space="preserve"><path d="M588.5 0c-12.8 0-25.3 1.2-37.5 3.5 94.2 17.6 165.5 93.1 165.5 192.3 0 70.7-57.3 135.1-128 135.1-13 0-25.6-2-37.5-5.6-52.4-16-90.5-64.8-90.5-122.4 0-57.6 38.1-106.4 90.5-122.4-11.9-3.6-24.4-5.6-37.5-5.6-70.7 0-128 64.5-128 135.1 0 99.3 71.3 174.7 165.5 192.3 12.2 2.3 24.7 3.5 37.5 3.5 86.9 0 161-54.6 190-131.4v-143C749.5 54.6 675.4 0 588.5 0z" style="fill:#c1bfbc"/><path d="M551 3.5C538.8 1.2 526.3 0 513.5 0c-97.4 0-178.7 68.6-198.4 160.1-.7 3.1-3.4 5.3-6.6 5.3h-98.8c-3.7 0-6.8 3-6.8 6.8v61.4c0 3.7 3 6.8 6.8 6.8h86.8c3.7 0 6.8 3 6.8 6.8v30.5c0 3.2-1.2 6.4-3.3 8.8-23.5 27.3-58.2 44.5-97 44.5-70.7 0-128-57.3-128-128S132.3 75 203 75c19.9 0 38.7 4.5 55.5 12.6 3.2 1.5 7 .4 8.8-2.6l31.5-53c2-3.3.8-7.7-2.7-9.5C268.1 8.2 236.5 0 202.9 0 90.9 0 0 90.9 0 202.9c0 112.1 90.9 203 202.9 203 59.6 0 113.1-25.7 150.2-66.5 2.7-3 7.3-3 10.1 0 37.1 40.9 90.7 66.5 150.2 66.5 12.8 0 25.3-1.2 37.5-3.5-94.2-17.6-165.5-93.1-165.5-192.3 0-70.7 57.3-135.1 128-135.1 13 0 25.6 2 37.5 5.6 52.4 16 90.5 64.8 90.5 122.4 0 57.6-38.1 106.4-90.5 122.4 11.9 3.6 24.4 5.6 37.5 5.6 70.7 0 128-64.5 128-135.1C716.4 96.5 645.2 21 551 3.5zm442.2 321.7H860.1c-3.7 0-6.8-3-6.8-6.8V12.6c0-3.7-3-6.8-6.8-6.8h-61.4c-3.7 0-6.8 3-6.8 6.8v374c0 7.5 6.1 13.5 13.5 13.5h201.3c3.7 0 6.8-3 6.8-6.8v-61.4c.1-3.7-2.9-6.7-6.7-6.7z" style="fill:#ff7020"/></svg>